<?xml version="1.0" encoding="UTF-8"?>
<svg id="Capa_1" data-name="Capa 1" xmlns="http://www.w3.org/2000/svg" viewBox="0 0 256 256">
  <defs>
    <style>
      .cls-1 {
        fill: #fff;
      }
    </style>
  </defs>
  <circle class="cls-1" cx="128" cy="128" r="128"/>
  <g>
    <path d="M101.68,189.62V109.96h25.64c5.67,0,10.58,.98,14.73,2.95,4.15,1.96,7.37,4.77,9.66,8.4,2.29,3.64,3.44,7.93,3.44,12.88s-1.25,9.79-3.76,13.86c-2.51,4.08-5.91,7.02-10.2,8.84l15.06,32.74h-17.79l-12.88-30.12h-7.64v30.12h-16.26Zm16.26-44.3h9.39c3.64,0,6.45-.91,8.46-2.73,2-1.82,3-4.37,3-7.64s-1-6.07-3-7.97c-2-1.89-4.82-2.84-8.46-2.84h-9.39v21.17Z"/>
    <path d="M168.79,189.62V109.96h49.1v14.19h-33.06v17.9h29.25v13.53h-29.25v19.86h33.06v14.19h-49.1Z"/>
  </g>
</svg>