<?xml version="1.0" encoding="UTF-8"?>
<svg id="Icono" xmlns="http://www.w3.org/2000/svg" viewBox="0 0 512 541.96">
  <defs>
    <style>
      .cls-1 {
        fill: #fff5b8;
      }
    </style>
  </defs>
  <polygon class="cls-1" points="512 246.34 512 344.88 426.67 394.15 426.67 295.61 512 246.34"/>
  <polygon class="cls-1" points="426.67 295.61 426.67 394.15 341.33 344.88 341.33 246.34 426.67 295.61"/>
  <polygon class="cls-1" points="512 246.34 426.67 295.61 341.33 246.34 426.67 197.07 512 246.34"/>
  <polygon class="cls-1" points="341.33 443.42 341.33 541.96 256 492.69 256 394.15 341.33 443.42"/>
  <polygon class="cls-1" points="426.67 394.15 341.33 443.42 256 394.15 341.33 344.88 426.67 394.15"/>
  <polygon class="cls-1" points="256 98.54 256 197.07 170.67 246.34 170.67 147.81 256 98.54"/>
  <polygon class="cls-1" points="170.67 147.81 170.67 246.34 85.33 197.07 85.33 98.54 170.67 147.81"/>
  <polygon class="cls-1" points="256 98.54 170.67 147.81 85.33 98.54 170.67 49.27 256 98.54"/>
  <polygon class="cls-1" points="426.67 98.54 426.67 197.07 341.33 246.34 341.33 147.81 426.67 98.54"/>
  <polygon class="cls-1" points="341.33 147.81 341.33 246.34 256 197.07 256 98.54 341.33 147.81"/>
  <polygon class="cls-1" points="256 394.15 256 492.69 170.67 541.96 170.67 443.42 256 394.15"/>
  <polygon class="cls-1" points="170.67 443.42 170.67 541.96 85.33 492.69 85.33 394.15 170.67 443.42"/>
  <polygon class="cls-1" points="256 394.15 170.67 443.42 85.33 394.15 170.67 344.88 256 394.15"/>
  <polygon class="cls-1" points="170.67 246.34 170.67 344.88 85.33 394.15 85.33 295.61 170.67 246.34"/>
  <polygon class="cls-1" points="170.67 246.34 85.33 295.61 0 246.34 85.33 197.07 170.67 246.34"/>
  <polygon class="cls-1" points="341.33 49.27 256 98.54 170.67 49.27 256 0 341.33 49.27"/>
  <polygon class="cls-1" points="512 344.88 512 443.42 426.67 492.69 426.67 394.15 512 344.88"/>
  <polygon class="cls-1" points="85.33 394.15 85.33 492.69 0 443.42 0 344.88 85.33 394.15"/>
</svg>