<?xml version="1.0" encoding="UTF-8"?>
<svg id="Capa_1" data-name="Capa 1" xmlns="http://www.w3.org/2000/svg" viewBox="0 0 256 256">
  <defs>
    <style>
      .cls-1 {
        fill: #fff;
      }
    </style>
  </defs>
  <path class="cls-1" d="M139.37,131.95h-10.64v24h10.64c4.12,0,7.32-1.03,9.59-3.09,2.27-2.06,3.4-4.95,3.4-8.66s-1.13-6.89-3.4-9.03c-2.27-2.14-5.46-3.22-9.59-3.22Z"/>
  <path class="cls-1" d="M186.38,206.17V115.87h55.67v16.08h-37.48v20.29h33.15v15.34h-33.15v22.51h35.39c10.22-18.39,16.05-39.56,16.05-62.09C256,57.31,198.69,0,128,0S0,57.31,0,128s57.31,128,128,128c41.26,0,77.95-19.52,101.35-49.83h-42.98Zm-34.39,0l-14.6-34.14h-8.66v34.14h-18.43V115.87h29.07c6.43,0,12,1.11,16.7,3.34,4.7,2.23,8.35,5.4,10.95,9.53,2.6,4.12,3.9,8.99,3.9,14.6s-1.42,11.09-4.27,15.71c-2.85,4.62-6.7,7.96-11.57,10.02l17.07,37.11h-20.16Z"/>
</svg>