<?xml version="1.0" encoding="UTF-8"?>
<svg id="Icono" xmlns="http://www.w3.org/2000/svg" viewBox="0 0 512 512">
  <defs>
    <style>
      .cls-1 {
        fill: #a3f;
      }
    </style>
  </defs>
  <path class="cls-1" d="M220.99,288h-23.29v51.2h23.29c8.36,0,14.93-2.26,19.71-6.78,4.78-4.52,7.17-10.63,7.17-18.31s-2.43-14.37-7.29-19.07c-4.87-4.69-11.4-7.04-19.59-7.04Z"/>
  <path class="cls-1" d="M0,0V512H512V0H0ZM247.87,440.32l-31.23-71.68h-18.94v71.68h-38.15v-184.32h61.44c10.07,0,19.11,1.32,27.14,3.97,8.02,2.65,14.85,6.4,20.48,11.26,5.63,4.87,9.98,10.75,13.05,17.67,3.08,6.91,4.61,14.72,4.61,23.42,0,11.95-2.9,22.19-8.7,30.72-5.81,8.54-13.83,15.02-24.07,19.46l35.33,77.82h-40.96Zm185.6-151.04h-78.08v39.94h69.12v33.28h-69.12v44.54h78.08v33.28h-116.48v-184.32h116.48v33.28Z"/>
</svg>